<?xml version="1.0" encoding="UTF-8" standalone="no"?>
<!-- Created with Inkscape (http://www.inkscape.org/) -->

<svg
   width="142.23473mm"
   height="79.964371mm"
   viewBox="0 0 142.23473 79.964371"
   version="1.1"
   id="svg5"
   inkscape:version="1.2.1 (9c6d41e410, 2022-07-14)"
   sodipodi:docname="fly_now_pay_later_placeholder.svg"
   xmlns:inkscape="http://www.inkscape.org/namespaces/inkscape"
   xmlns:sodipodi="http://sodipodi.sourceforge.net/DTD/sodipodi-0.dtd"
   xmlns:xlink="http://www.w3.org/1999/xlink"
   xmlns="http://www.w3.org/2000/svg"
   xmlns:svg="http://www.w3.org/2000/svg">
  <sodipodi:namedview
     id="namedview7"
     pagecolor="#ffffff"
     bordercolor="#000000"
     borderopacity="0.25"
     inkscape:showpageshadow="2"
     inkscape:pageopacity="0.0"
     inkscape:pagecheckerboard="0"
     inkscape:deskcolor="#d1d1d1"
     inkscape:document-units="mm"
     showgrid="false"
     inkscape:zoom="0.71446409"
     inkscape:cx="-82.579378"
     inkscape:cy="-9.7975534"
     inkscape:window-width="1920"
     inkscape:window-height="974"
     inkscape:window-x="-11"
     inkscape:window-y="-11"
     inkscape:window-maximized="1"
     inkscape:current-layer="layer1" />
  <defs
     id="defs2">
    <linearGradient
       inkscape:collect="always"
       id="linearGradient2113">
      <stop
         style="stop-color:#ff0f0f;stop-opacity:1;"
         offset="0"
         id="stop2109" />
      <stop
         style="stop-color:#fc4444;stop-opacity:0;"
         offset="0.41436467"
         id="stop2111" />
      <stop
         style="stop-color:#fc4444;stop-opacity:0;"
         offset="0.60957646"
         id="stop2119" />
      <stop
         style="stop-color:#ff0f0f;stop-opacity:1;"
         offset="1"
         id="stop2121" />
    </linearGradient>
    <inkscape:path-effect
       effect="spiro"
       id="path-effect1522"
       is_visible="true"
       lpeversion="1" />
    <inkscape:path-effect
       effect="spiro"
       id="path-effect1264"
       is_visible="true"
       lpeversion="1" />
    <linearGradient
       inkscape:collect="always"
       xlink:href="#linearGradient2113"
       id="linearGradient2117"
       x1="40.065338"
       y1="56.104115"
       x2="158.79875"
       y2="56.104115"
       gradientUnits="userSpaceOnUse" />
  </defs>
  <g
     inkscape:label="Layer 1"
     inkscape:groupmode="layer"
     id="layer1"
     transform="translate(-36.378959,-1.6280045)">
    <ellipse
       style="fill:url(#linearGradient2117);fill-opacity:1;stroke:#000000;stroke-width:0.600001;stroke-linecap:square;stroke-miterlimit:0"
       id="path234"
       cx="99.432045"
       cy="56.104115"
       rx="59.066708"
       ry="22.404613" />
    <circle
       style="fill:#60d383;stroke:none;stroke-width:0.600001;stroke-linecap:square;stroke-miterlimit:0"
       id="path829"
       cx="154.88943"
       cy="22.912642"
       r="2" />
    <ellipse
       style="fill:#60d383;fill-opacity:0;stroke:#000000;stroke-width:0.600001;stroke-linecap:square;stroke-miterlimit:0;stroke-dasharray:0.600001, 4.80001;stroke-dashoffset:0;stroke-opacity:1"
       id="path939"
       cx="154.88943"
       cy="22.912642"
       rx="23.423004"
       ry="21.015898" />
    <circle
       style="fill:#60d383;stroke:none;stroke-width:0.600001;stroke-linecap:square;stroke-miterlimit:0"
       id="path829-1"
       cx="136.69026"
       cy="36.398365"
       r="2" />
    <path
       style="fill:none;fill-opacity:0;stroke:#000000;stroke-width:0.6;stroke-linecap:square;stroke-miterlimit:0;stroke-dasharray:none;stroke-dashoffset:0;stroke-opacity:1"
       d="m 136.69026,38.398365 c -0.49729,-0.733711 -1.3763,-1.192448 -2.26258,-1.180785 -0.57403,0.0076 -1.13181,0.198769 -1.64727,0.451498 -0.51545,0.252728 -0.99772,0.567531 -1.50049,0.844637 -0.82438,0.454363 -1.70171,0.806105 -2.59227,1.110972 -0.13156,0.04503 -0.26759,0.09145 -0.37032,0.185164 -0.11637,0.106153 -0.17533,0.259107 -0.24458,0.400581 -0.0346,0.07074 -0.073,0.140289 -0.12338,0.200822 -0.0504,0.06053 -0.11363,0.11201 -0.18753,0.139245 -0.0682,0.02514 -0.14249,0.0288 -0.21222,0.04938 -0.0349,0.01029 -0.0688,0.02503 -0.0975,0.04748 -0.0286,0.02245 -0.0516,0.0531 -0.0606,0.0883 -0.008,0.02997 -0.006,0.06151 -0.003,0.09239 0.002,0.03088 0.003,0.06182 0.003,0.09277 v 0.185161 c 0,0.03129 -0.003,0.0625 -0.007,0.09347 -0.002,0.01548 -0.004,0.03106 -0.004,0.04671 3.3e-4,0.01564 0.003,0.03157 0.0114,0.04499 0.009,0.01464 0.0233,0.02545 0.0393,0.03129 0.016,0.0058 0.0336,0.0069 0.0505,0.0048 0.0339,-0.0043 0.0647,-0.02091 0.0953,-0.03607 0.088,-0.04358 0.1824,-0.07766 0.28041,-0.08328 0.098,-0.0056 0.20036,0.01959 0.27508,0.08328 0.0532,0.04537 0.0898,0.107459 0.11682,0.171981 0.027,0.06452 0.0453,0.132284 0.0683,0.198343 0.10692,0.307117 0.31654,0.575016 0.57988,0.765808 0.26335,0.190792 0.57863,0.305671 0.90142,0.345164 0.15787,0.01931 0.3175,0.02108 0.47534,0.04067 0.15783,0.01958 0.31675,0.05839 0.45047,0.144496 0.0592,0.03813 0.11253,0.08492 0.17206,0.122585 0.0595,0.03766 0.12793,0.06646 0.19826,0.06258 0.066,-0.0036 0.12693,-0.03546 0.19141,-0.0501 0.0322,-0.0073 0.066,-0.01029 0.0983,-0.0031 0.0323,0.0071 0.063,0.02528 0.0806,0.05325 0.0169,0.02683 0.0205,0.06017 0.0176,0.09175 -0.003,0.03158 -0.0116,0.06229 -0.0176,0.09341 -0.0326,0.167868 0.0151,0.342541 0.0925,0.495041 0.0774,0.1525 0.18337,0.288241 0.27785,0.430767 0.14408,0.217348 0.26517,0.464996 0.25632,0.725614 -0.004,0.130309 -0.0429,0.260942 -0.11959,0.366375 -0.0767,0.105433 -0.1931,0.183821 -0.32189,0.204147 -0.061,0.0096 -0.12328,0.0068 -0.18502,0.0042 -0.0617,-0.0026 -0.12352,-0.0042 -0.18531,-0.0042 h -0.37032 -3.51808 -0.92581 c -0.0618,0 -0.12363,0.0019 -0.18537,0.005 -0.0617,0.0031 -0.1242,0.0064 -0.18495,-0.005 -0.0905,-0.01712 -0.17138,-0.06707 -0.24495,-0.122516 -0.0736,-0.05544 -0.14254,-0.11753 -0.22165,-0.164723 -0.0791,-0.04719 -0.17153,-0.07913 -0.26279,-0.06655 -0.0456,0.0063 -0.0901,0.02394 -0.12566,0.05315 -0.0356,0.02921 -0.062,0.07026 -0.0708,0.115477 -0.006,0.03035 -0.004,0.0616 -0.003,0.09247 0.002,0.03087 0.003,0.06178 0.003,0.09269 v 0.555485 2.036783 0.370324 c 0,0.03094 -0.001,0.06187 -0.003,0.09275 -0.002,0.03088 -0.004,0.06234 0.003,0.09241 0.006,0.02602 0.0199,0.0501 0.038,0.06977 0.0182,0.01967 0.0409,0.03496 0.0655,0.0454 0.0493,0.0209 0.10529,0.02217 0.15779,0.01166 0.105,-0.02101 0.1953,-0.08569 0.29416,-0.126833 0.15972,-0.06646 0.34109,-0.06987 0.50975,-0.03138 0.16866,0.03849 0.32591,0.116875 0.47222,0.209181 0.29262,0.184613 0.55085,0.428409 0.86965,0.56285 0.15411,0.06499 0.31812,0.102448 0.47801,0.15153 0.15989,0.04908 0.31927,0.111778 0.4478,0.218794 0.0671,0.05588 0.12425,0.122564 0.18516,0.185161 0.10968,0.112729 0.23219,0.212771 0.33731,0.329764 0.10513,0.116993 0.19405,0.255464 0.21818,0.410886 0.019,0.122163 -0.003,0.246737 0,0.370325 0.003,0.138415 0.0385,0.275777 0.0285,0.413878 -0.005,0.06905 -0.0216,0.138237 -0.057,0.197782 -0.0353,0.05954 -0.0905,0.108839 -0.15671,0.128988 -0.0593,0.01804 -0.12285,0.01291 -0.18464,0.008 -0.0618,-0.0049 -0.12371,-0.008 -0.18569,-0.008 h -0.18516 -4.07356 -1.11098 c -0.062,0 -0.12388,-0.003 -0.18566,-0.0078 -0.0618,-0.0048 -0.12523,-0.0098 -0.18466,0.0078 -0.0425,0.01256 -0.081,0.03665 -0.11425,0.06595 -0.0333,0.02931 -0.0616,0.06379 -0.0879,0.09942 -0.0527,0.07126 -0.0995,0.148917 -0.16815,0.20495 -0.0891,0.07267 -0.20496,0.101049 -0.31136,0.144595 -0.0532,0.02177 -0.1052,0.04804 -0.14928,0.08494 -0.0441,0.0369 -0.08,0.08525 -0.0948,0.140784 -0.016,0.06 -0.007,0.123415 0,0.18516 0.0133,0.123008 0.0158,0.247605 0,0.370324 -0.025,0.194568 -0.0954,0.381044 -0.18516,0.555488 -0.0951,0.184961 -0.21202,0.357761 -0.3165,0.537613 -0.10448,0.179851 -0.19753,0.369537 -0.23899,0.573359 -0.0431,0.212096 -0.0307,0.431094 -0.019,0.647216 0.0117,0.216122 0.019,0.43248 0.019,0.64892 v 1.666459 0.370324 c 0,0.03129 -0.003,0.06249 -0.007,0.09346 -0.002,0.01548 -0.004,0.03106 -0.004,0.0467 3.2e-4,0.01564 0.003,0.03156 0.0113,0.04501 0.009,0.0147 0.0232,0.02561 0.0392,0.03155 0.0161,0.0059 0.0336,0.0071 0.0506,0.005 0.034,-0.0042 0.0649,-0.02092 0.0953,-0.03655 0.0299,-0.01537 0.0611,-0.03021 0.0946,-0.03358 0.0168,-0.0017 0.0339,-3.91e-4 0.0498,0.005 0.0159,0.0054 0.0306,0.01515 0.0408,0.02853 0.0115,0.01513 0.017,0.0344 0.0171,0.05342 1.3e-4,0.01902 -0.005,0.03784 -0.0124,0.05529 -0.0152,0.0349 -0.0404,0.0643 -0.0605,0.0966 -0.01,0.01615 -0.0189,0.0332 -0.0243,0.05145 -0.005,0.01824 -0.007,0.03778 -0.003,0.05639 0.004,0.01861 0.014,0.03621 0.0293,0.04749 0.008,0.0056 0.0166,0.0097 0.0259,0.01142 0.009,0.0018 0.0191,0.0012 0.0282,-0.0017 0.0168,-0.0056 0.0301,-0.01953 0.037,-0.03584 0.007,-0.01631 0.008,-0.03472 0.005,-0.05217 -0.006,-0.03489 -0.0263,-0.06533 -0.0418,-0.09715 -0.048,-0.09853 -0.0502,-0.215271 -0.0212,-0.32096 0.029,-0.105689 0.0871,-0.201394 0.15503,-0.287371 0.13589,-0.171952 0.31383,-0.311852 0.42168,-0.502644 0.078,-0.138027 0.11493,-0.295601 0.13605,-0.45274 0.0211,-0.15714 0.0274,-0.316009 0.0491,-0.473068 0.0961,-0.695135 0.48735,-1.313872 0.92492,-1.862488 0.43758,-0.548616 0.93316,-1.055554 1.29703,-1.655592 0.11563,-0.190671 0.21882,-0.39187 0.37032,-0.555488 0.20409,-0.220413 0.48469,-0.358581 0.77476,-0.436664 0.29006,-0.07808 0.59188,-0.100204 0.8917,-0.11882 0.86478,-0.0537 1.73207,-0.08129 2.59227,-0.185164 0.43217,-0.05219 0.87843,-0.122588 1.29613,0 0.26561,0.07795 0.50232,0.229519 0.74065,0.370324 0.21045,0.124336 0.4257,0.242003 0.62203,0.38761 0.19634,0.145606 0.37502,0.32194 0.48895,0.538202 0.0644,0.122239 0.10756,0.256007 0.18516,0.370324 0.0635,0.09355 0.14783,0.170736 0.22122,0.256739 0.0734,0.086 0.13793,0.186234 0.1491,0.298746 0.006,0.06145 0,0.123413 0,0.185163 v 0.555487 c 0,0.0621 -0.004,0.124118 -0.01,0.185928 -0.006,0.06181 -0.012,0.12619 0.01,0.184396 0.019,0.05119 0.0596,0.09313 0.10831,0.117845 0.0487,0.02471 0.10496,0.03279 0.15929,0.0273 0.10867,-0.01098 0.20547,-0.07348 0.28789,-0.145148 0.0659,-0.0573 0.12551,-0.121385 0.18516,-0.185163 0.35785,-0.382599 0.72254,-0.759461 1.11097,-1.110972 0.19447,-0.17598 0.39626,-0.347083 0.55549,-0.555488 0.0538,-0.07037 0.10246,-0.144736 0.1606,-0.211532 0.0581,-0.0668 0.1272,-0.126656 0.20972,-0.158792 0.0871,-0.03391 0.18347,-0.0349 0.27654,-0.02654 0.0931,0.0084 0.18551,0.0256 0.27895,0.02654 0.1238,0.0012 0.24928,-0.02602 0.37032,0 0.0871,0.01873 0.16682,0.06452 0.23445,0.122523 0.0676,0.058 0.12394,0.128033 0.17557,0.200645 0.10326,0.145224 0.19209,0.305417 0.33063,0.417481 0.16251,0.13145 0.37421,0.181426 0.56213,0.272951 0.0939,0.04576 0.18387,0.103452 0.25243,0.182326 0.0686,0.07887 0.11438,0.180911 0.11125,0.285373 -0.002,0.06954 -0.0253,0.136701 -0.0525,0.200739 -0.0272,0.06404 -0.0587,0.126507 -0.0789,0.193078 -0.0202,0.06657 -0.0286,0.138873 -0.009,0.205536 0.01,0.03333 0.027,0.06476 0.051,0.08992 0.024,0.02516 0.0551,0.04387 0.0891,0.05137 0.0302,0.0067 0.0616,0.0048 0.0924,0.0029 0.0309,-0.0018 0.0618,-0.0029 0.0927,-0.0029 h 0.55548 1.4813 2.40711 0.74064 c 0.0618,0 0.12363,-0.0019 0.18538,-0.0051 0.0617,-0.0031 0.12421,-0.0065 0.18495,0.0051 0.0681,0.01295 0.13121,0.04471 0.19087,0.08006 0.0597,0.03535 0.1171,0.07473 0.17945,0.105099 0.17584,0.08564 0.38168,0.09548 0.55549,0.185163 0.10846,0.05597 0.19985,0.141049 0.2762,0.236274 0.0764,0.09523 0.13858,0.200832 0.19923,0.306751 0.0607,0.105919 0.12018,0.21285 0.19179,0.311688 0.0716,0.09884 0.1561,0.189982 0.25859,0.25626 0.11599,0.07501 0.2509,0.115753 0.37032,0.18516 0.0966,0.05615 0.18142,0.130051 0.26914,0.19926 0.0877,0.06921 0.1806,0.134987 0.28635,0.171064 0.0674,0.023 0.13869,0.03342 0.20587,0.05715 0.0336,0.01187 0.0662,0.02715 0.095,0.04815 0.0288,0.021 0.0537,0.04793 0.0695,0.07986 0.0212,0.04279 0.0251,0.09242 0.0199,0.139878 -0.005,0.04746 -0.0189,0.09349 -0.0317,0.139498 -0.0127,0.04601 -0.0245,0.09279 -0.0256,0.14052 -0.001,0.04773 0.009,0.09703 0.0374,0.135591 0.0261,0.03578 0.065,0.05953 0.10094,0.08548 0.018,0.01297 0.0354,0.02678 0.0504,0.04312 0.015,0.01634 0.0274,0.03538 0.0338,0.05656 0.009,0.02964 0.006,0.06142 0.004,0.09232 -0.002,0.03089 -0.004,0.06186 -0.004,0.09285 v 0.185161"
       id="path1520"
       inkscape:path-effect="#path-effect1522"
       inkscape:original-d="m 136.69026,38.398365 c -0.75419,-0.393594 -1.41628,-1.094147 -2.26258,-1.180785 -0.78588,-0.08045 -2.33056,0.969253 -3.14776,1.296135 -3.17591,1.270368 -0.44645,-0.11521 -2.59227,1.110972 -0.11982,0.06847 -0.27273,0.08758 -0.37032,0.185164 -0.21822,0.218215 -0.33727,0.522433 -0.55549,0.740648 -0.0976,0.09759 -0.27273,0.08757 -0.37032,0.185161 -0.0436,0.04364 0,0.123441 0,0.185163 0,0.06172 0,0.123441 0,0.185161 0,0.06172 -0.0436,0.14152 0,0.185163 0.0436,0.04364 0.12344,0 0.18516,0 0.18516,0 0.38987,-0.08281 0.55549,0 0.12344,0.06172 0.0876,0.272735 0.18516,0.370324 0.28805,0.288047 1.05395,0.854565 1.4813,1.110972 0.6604,0.396243 0.0653,0.01307 0.92581,0.185164 0.13533,0.02706 0.23643,0.151688 0.37032,0.18516 0.11976,0.02994 0.25992,-0.05521 0.37033,0 0.0552,0.0276 -0.0229,0.127858 0,0.185164 0.39792,0.994814 0.37032,0.420134 0.37032,0.925808 0,0.312039 0.076,1.034963 -0.18516,1.296136 -0.0873,0.08729 -0.24688,0 -0.37033,0 -0.12344,0 -0.24688,0 -0.37032,0 -1.17269,0 -2.34539,0 -3.51808,0 -0.3086,0 -0.61721,0 -0.92581,0 -0.12344,0 -0.24928,0.02421 -0.37032,0 -0.16204,-0.03241 -0.68322,-0.306462 -0.92582,-0.185163 -0.0552,0.0276 0,0.123441 0,0.185163 0,0.185161 0,0.370324 0,0.555485 0,0.678929 0,1.357857 0,2.036783 0,0.123442 0,0.246883 0,0.370324 0,0.06172 -0.0585,0.165645 0,0.185164 0.17567,0.05855 0.37852,-0.05445 0.55549,0 0.63536,0.195492 1.23441,0.493765 1.85162,0.740648 0.30861,0.123441 0.62853,0.221681 0.92581,0.370324 0.0781,0.03904 0.13064,0.117004 0.18516,0.185161 0.19279,0.24098 0.41748,0.464627 0.55549,0.74065 0.0552,0.110408 0,0.246883 0,0.370325 0,0.250888 0.0195,0.535966 -0.18516,0.740648 -0.0873,0.08729 -0.24688,0 -0.37033,0 -0.0617,0 -0.12344,0 -0.18516,0 -1.35785,0 -2.71571,0 -4.07356,0 -0.37033,0 -0.74065,0 -1.11098,0 -0.12344,0 -0.25991,-0.05521 -0.37032,0 -0.15614,0.07807 -0.23401,0.261268 -0.37032,0.370324 -0.17378,0.139017 -0.39813,0.212965 -0.55549,0.370324 -0.0436,0.04364 0,0.123441 0,0.18516 0,0.123442 0.0242,0.24928 0,0.370324 -0.0383,0.191389 -0.11267,0.374269 -0.18516,0.555488 -0.10801,0.270028 -0.52463,0.941239 -0.55549,1.110972 -0.0773,0.425077 0,0.86409 0,1.296136 0,0.555484 0,1.110972 0,1.666459 0,0.123442 0,0.246883 0,0.370324 0,0.06172 -0.0436,0.141518 0,0.185161 0.0436,0.04364 0.12344,0 0.18516,0 0.0617,0 0.14152,-0.04364 0.18516,0 0.0873,0.08729 -0.12344,0.370324 0,0.370324 0.0617,0 -0.0243,-0.128431 0,-0.185161 0.1631,-0.380558 0.414,-0.721865 0.55549,-1.110975 0.10755,-0.295767 0.0512,-0.641048 0.18516,-0.925808 0.73586,-1.563706 1.31034,-2.215775 2.22195,-3.51808 0.12762,-0.182311 0.17496,-0.448924 0.37032,-0.555488 0.51404,-0.280384 1.1007,-0.404614 1.66646,-0.555484 0.99876,-0.266338 1.52368,-0.185164 2.59227,-0.185164 0.43204,0 0.87106,-0.07729 1.29613,0 0.27158,0.04938 0.50659,0.224034 0.74065,0.370324 0.23536,0.147101 0.88727,0.627542 1.11098,0.925812 0.0828,0.110408 0.11415,0.251978 0.18516,0.370324 0.11449,0.190823 0.2708,0.356444 0.37032,0.555485 0.0276,0.05521 0,0.123444 0,0.185163 0,0.185163 0,0.370324 0,0.555487 0,0.123442 -0.0552,0.259914 0,0.370324 0.004,0.0089 0.40391,0 0.55549,0 0.44439,0 -0.0124,0.06172 0.18516,-0.185163 0.32717,-0.408953 0.74065,-0.740648 1.11097,-1.110972 0.18517,-0.185163 0.37033,-0.370324 0.55549,-0.555488 0.12344,-0.123441 0.20824,-0.305487 0.37032,-0.370324 0.17192,-0.06877 0.37033,0 0.55549,0 0.12344,0 0.25991,-0.0552 0.37032,0 0.0106,0.0053 0.70474,0.709867 0.74065,0.740649 0.30006,0.257196 0.71635,0.405516 0.92581,0.74065 0.13085,0.209355 -0.0599,0.501137 0,0.740648 0.015,0.05988 0.12344,0 0.18517,0 0.18516,0 0.37032,0 0.55548,0 0.49377,0 0.98753,0 1.4813,0 0.80237,0 1.60474,0 2.40711,0 0.24688,0 0.49376,0 0.74064,0 0.12345,0 0.25057,-0.02994 0.37033,0 0.13389,0.03347 0.24218,0.133906 0.37032,0.185161 0.18122,0.07249 0.39309,0.0769 0.55549,0.185163 0.91002,0.606677 0.24267,0.427829 0.92581,1.110973 0.0976,0.09759 0.25198,0.114154 0.37032,0.18516 0.19083,0.114496 0.36467,0.255831 0.55549,0.370324 0.11834,0.07101 0.27274,0.08758 0.37032,0.185164 0.0379,0.03785 -0.0367,0.482071 0,0.555487 0.039,0.07807 0.14613,0.10709 0.18517,0.185161 0.0276,0.05521 0,0.123441 0,0.185163 0,0.06172 0,0.123442 0,0.185161" />
    <path
       style="fill:none;fill-opacity:0;stroke:#09ff06;stroke-width:1.6;stroke-linecap:square;stroke-miterlimit:0;stroke-dasharray:none;stroke-dashoffset:0;stroke-opacity:1"
       d="m 146.0541,56.756312 2.66986,2.398846"
       id="path1996" />
    <path
       style="fill:none;fill-opacity:0;stroke:#09ff06;stroke-width:1.6;stroke-linecap:square;stroke-miterlimit:0;stroke-dasharray:none;stroke-dashoffset:0;stroke-opacity:1"
       d="m 146.0541,59.155158 2.66986,-2.398846"
       id="path1996-0" />
  </g>
</svg>
